<svg width="40" height="40" viewBox="0 0 40 40" fill="none" xmlns="http://www.w3.org/2000/svg">
<path d="M40 20C40 25.5228 37.7614 30.5228 34.1421 34.1421C30.5228 37.7614 25.5228 40 20 40C14.4772 40 9.47715 37.7614 5.85786 34.1421C2.23858 30.5228 0 25.5228 0 20C0 14.4772 2.23858 9.47715 5.85786 5.85786C9.47715 2.23858 14.4772 0 20 0C25.5228 0 30.5228 2.23858 34.1421 5.85786C37.7614 9.47715 40 14.4772 40 20Z" fill="#4D5AE5"/>
<g clip-path="url(#clip0_1019708_410)">
<path d="M22.6647 14.6567H24.1254V12.1127C23.8734 12.078 23.0067 12 21.9974 12C19.8914 12 18.4487 13.3247 18.4487 15.7593V18H16.1247V20.844H18.4487V28H21.298V20.8447H23.528L23.882 18.0007H21.2974V16.0413C21.298 15.2193 21.5194 14.6567 22.6647 14.6567Z" fill="#F4F4FD"/>
</g>
<defs>
<clipPath id="clip0_1019708_410">
<rect width="16" height="16" fill="white" transform="translate(12 12)"/>
</clipPath>
</defs>
</svg>
