<svg width="40" height="40" viewBox="0 0 40 40" fill="none" xmlns="http://www.w3.org/2000/svg">
<path d="M40 20C40 25.5228 37.7614 30.5228 34.1421 34.1421C30.5228 37.7614 25.5228 40 20 40C14.4772 40 9.47715 37.7614 5.85786 34.1421C2.23858 30.5228 0 25.5228 0 20C0 14.4772 2.23858 9.47715 5.85786 5.85786C9.47715 2.23858 14.4772 0 20 0C25.5228 0 30.5228 2.23858 34.1421 5.85786C37.7614 9.47715 40 14.4772 40 20Z" fill="#4D5AE5"/>
<g clip-path="url(#clip0_1019708_398)">
<path d="M27.9843 16.704C27.9468 15.8539 27.8093 15.2694 27.6124 14.763C27.4092 14.2254 27.0967 13.7441 26.6872 13.344C26.2871 12.9377 25.8026 12.6219 25.2713 12.422C24.7619 12.225 24.1805 12.0875 23.3303 12.0501C22.4738 12.0094 22.2019 12 20.0296 12C17.8573 12 17.5854 12.0094 16.7321 12.0469C15.882 12.0844 15.2975 12.222 14.7912 12.4188C14.2535 12.6219 13.7722 12.9345 13.3721 13.344C12.9658 13.7441 12.6501 14.2286 12.45 14.7599C12.2531 15.2694 12.1156 15.8507 12.0781 16.7009C12.0375 17.5574 12.0281 17.8293 12.0281 20.0016C12.0281 22.1739 12.0375 22.4458 12.075 23.2991C12.1124 24.1492 12.25 24.7337 12.447 25.2401C12.6501 25.7777 12.9658 26.259 13.3721 26.6591C13.7722 27.0654 14.2567 27.3812 14.788 27.5812C15.2975 27.7781 15.8788 27.9156 16.7291 27.9531C17.5823 27.9907 17.8543 28 20.0266 28C22.1989 28 22.4708 27.9907 23.3241 27.9531C24.1742 27.9156 24.7587 27.7781 25.265 27.5812C26.3403 27.1654 27.1904 26.3153 27.6062 25.2401C27.803 24.7306 27.9406 24.1492 27.9781 23.2991C28.0156 22.4458 28.025 22.1739 28.025 20.0016C28.025 17.8293 28.0218 17.5574 27.9843 16.704ZM26.5435 23.2366C26.509 24.018 26.3778 24.4399 26.2684 24.7212C25.9995 25.4183 25.4463 25.9715 24.7493 26.2403C24.468 26.3497 24.043 26.481 23.2646 26.5153C22.4207 26.5529 22.1676 26.5622 20.0328 26.5622C17.898 26.5622 17.6417 26.5529 16.8009 26.5153C16.0195 26.481 15.5975 26.3497 15.3162 26.2403C14.9693 26.1121 14.6536 25.909 14.3973 25.6433C14.1316 25.3838 13.9285 25.0713 13.8003 24.7244C13.6909 24.4431 13.5596 24.018 13.5253 23.2397C13.4877 22.3958 13.4784 22.1426 13.4784 20.0078C13.4784 17.873 13.4877 17.6167 13.5253 16.776C13.5596 15.9946 13.6909 15.5726 13.8003 15.2913C13.9285 14.9443 14.1316 14.6287 14.4005 14.3723C14.6598 14.1066 14.9724 13.9034 15.3194 13.7754C15.6007 13.666 16.0258 13.5347 16.804 13.5003C17.6479 13.4628 17.9012 13.4534 20.0359 13.4534C22.1738 13.4534 22.4269 13.4628 23.2678 13.5003C24.0492 13.5347 24.4712 13.666 24.7525 13.7754C25.0993 13.9034 25.4151 14.1066 25.6714 14.3723C25.937 14.6317 26.1402 14.9443 26.2684 15.2913C26.3778 15.5726 26.509 15.9976 26.5435 16.776C26.581 17.6199 26.5904 17.873 26.5904 20.0078C26.5904 22.1426 26.581 22.3927 26.5435 23.2366Z" fill="#F4F4FD"/>
<path d="M20.0297 15.8914C17.7606 15.8914 15.9195 17.7323 15.9195 20.0015C15.9195 22.2708 17.7606 24.1117 20.0297 24.1117C22.2989 24.1117 24.1398 22.2708 24.1398 20.0015C24.1398 17.7323 22.2989 15.8914 20.0297 15.8914ZM20.0297 22.6677C18.5576 22.6677 17.3635 21.4737 17.3635 20.0015C17.3635 18.5293 18.5576 17.3354 20.0297 17.3354C21.5019 17.3354 22.6958 18.5293 22.6958 20.0015C22.6958 21.4737 21.5019 22.6677 20.0297 22.6677Z" fill="#F4F4FD"/>
<path d="M25.262 15.7289C25.262 16.2588 24.8324 16.6884 24.3024 16.6884C23.7725 16.6884 23.3428 16.2588 23.3428 15.7289C23.3428 15.1989 23.7725 14.7693 24.3024 14.7693C24.8324 14.7693 25.262 15.1989 25.262 15.7289Z" fill="#F4F4FD"/>
</g>
<defs>
<clipPath id="clip0_1019708_398">
<rect width="16" height="16" fill="white" transform="translate(12 12)"/>
</clipPath>
</defs>
</svg>
