<svg width="40" height="40" viewBox="0 0 40 40" fill="none" xmlns="http://www.w3.org/2000/svg">
<path d="M40 20C40 25.5228 37.7614 30.5228 34.1421 34.1421C30.5228 37.7614 25.5228 40 20 40C14.4772 40 9.47715 37.7614 5.85786 34.1421C2.23858 30.5228 0 25.5228 0 20C0 14.4772 2.23858 9.47715 5.85786 5.85786C9.47715 2.23858 14.4772 0 20 0C25.5228 0 30.5228 2.23858 34.1421 5.85786C37.7614 9.47715 40 14.4772 40 20Z" fill="#4D5AE5"/>
<g clip-path="url(#clip0_1019708_414)">
<path d="M27.9961 28V27.9994H28.0001V22.1314C28.0001 19.2607 27.3821 17.0494 24.0261 17.0494C22.4128 17.0494 21.3301 17.9347 20.8881 18.774H20.8414V17.3174H17.6594V27.9994H20.9728V22.71C20.9728 21.3174 21.2368 19.9707 22.9614 19.9707C24.6608 19.9707 24.6861 21.56 24.6861 22.7994V28H27.9961Z" fill="#F4F4FD"/>
<path d="M12.264 17.318H15.5814V28H12.264V17.318Z" fill="#F4F4FD"/>
<path d="M13.9214 12C12.8607 12 12.0001 12.8607 12.0001 13.9213C12.0001 14.982 12.8607 15.8607 13.9214 15.8607C14.9821 15.8607 15.8427 14.982 15.8427 13.9213C15.8421 12.8607 14.9814 12 13.9214 12V12Z" fill="#F4F4FD"/>
</g>
<defs>
<clipPath id="clip0_1019708_414">
<rect width="16" height="16" fill="white" transform="translate(12.0001 12)"/>
</clipPath>
</defs>
</svg>
